<?xml version="1.0" encoding="UTF-8"?>
<svg id="a" data-name="Layer 1" xmlns="http://www.w3.org/2000/svg" width="600" height="600" viewBox="0 0 600 600">
  <path d="M29.593,560.513c7.123-3.384,35.062,4.967,36.776-2.6.549-2.422-10.351-20.427-11.817-22.36l-9.543-9.543s-21.525,28.109-15.416,34.503Z" fill="#c36f4b"/>
  <path d="M290.064,525.254c-1.378,6.881-2.007,30.188,4.102,36.582,7.123-3.384,57.014.96,58.728-6.607.549-2.422-12.482-36.241-13.948-38.173l-16.699-16.401-32.184,24.6Z" fill="#c36f4b"/>
  <path d="M402.964,541.877s11.979,8.917,18.088,15.311c7.123-3.384,14.996-14.246,14.996-14.246,0,0,11.694-27.763,10.229-29.695l-23.491-11.746-19.821,40.376Z" fill="#c36f4b"/>
  <path d="M188.792,445.759s-1.872,13.867-10.399,20.979c3.875,9.679,17.312,28.911,17.312,28.911,0,0,30.457,19.326,33.01,17.67l16.422-28.993-56.345-38.568Z" fill="#c36f4b"/>
  <polygon points="348.875 501.887 365.604 463.724 401.859 446.739 427.701 474.017 400.837 516.714 348.875 501.887" fill="#c36f4b"/>
  <path d="M282.416,148.953c1.235-.578,21.288-2.037,27.237,1.292,4.004,2.241,9.663,10.446,10.694,14.917,1.499,6.505-.432,21.024-4.493,26.321-4.812,6.276-21.107,15.338-28.731,13.236-8.536-2.354-18.042-23.04-20.164-29.121-.87-2.492,13.002-25.496,15.458-26.646Z" fill="#c36f4b"/>
  <path d="M248.63,87.284c6.549-1.892,21.231,2.141,26.485,6.485,3.536,2.924,7.433,12.105,7.639,16.689.299,6.669-8.495,24.041-9.451,24.973,0,0-23.654,11.012-30.734,7.488-7.928-3.945-13.295-26.069-14.213-32.443-.376-2.613,12.876-21.055,20.275-23.192Z" fill="#c36f4b"/>
  <path d="M365.384,368.014c-1.367-2.328,1.816-20.76,3.671-23.491.855-1.259,14.675-25.323,16.15-25.694,7.371-1.851,27.37,29.765,35.971,31.566-4.762,6.521-12.854,42.773-17.991,42.799-5.941-6.022-35.329-20.971-37.801-25.18Z" fill="#c36f4b"/>
  <path d="M407.392,407.276c.065-2.465-36.493-27.157-40.196-28.573-4.944-1.891-22.91,10.425-24.491,13.817-.833,1.786-1.959,37.627-1.089,39.395,1.84,3.74,10.443,13.002,14.266,14.625,1.237.525,19.965-.492,21.126-1.047,11.792-5.643,19.804-29.416,30.385-38.216Z" fill="#c36f4b"/>
  <path d="M405.52,144.803c-8.547-1.542-21.625-18.181-22.035-26.856-.483-10.201,12.894-31.447,22.811-33.885,7.474-1.837,23.836,7.673,27.072,14.656,3.81,8.224-1.969,28.259-7.448,35.479-3.475,4.579-14.743,11.626-20.399,10.606Z" fill="#c36f4b"/>
  <path d="M249.875,315.612c-2.329,6.292,2.781,26.365,7.595,33.315,7.232-2.133,28.084,11.294,30.832,4.405.88-2.205,15.778-26.586,14.682-28.63l-25.694-34.503-27.416,25.413Z" fill="#c36f4b"/>
  <path d="M582.788,557.455c.577-10.52-13.26-38.078-14.609-44.496-6.81-.685-22.251-8.418-27.152-4.349-1.569,1.303-18.494,17.241-18.363,19.031l20.482,32.016,39.641-2.202Z" fill="#c36f4b"/>
  <polygon points="418.973 417.933 426.836 447.74 458.278 463.794 488.713 427.476 463.753 401.048 418.973 417.933" fill="#c36f4b"/>
  <path d="M530.202,484.546c.235-1.373-8.957-24.499-9.923-25.504-1.906-1.983-17.442-13.708-20.555-13.214-2.103.334-26.286,15.104-27.162,16.15l1.406,33.03c1.253,5.664,27.995,9.676,34.159,11.986,2.631-.598,21.606-19.718,22.075-22.449Z" fill="#c36f4b"/>
  <path d="M525.263,556.423c.47-1.312-22.545-29.912-23.322-31.068-1.533-2.283-13.052-9.399-16.204-9.451-2.129-.035-25.308,6.217-26.352,7.095l-18.544,31.222c.253,5.796,33.237-1.141,38.907,2.202,2.694-.133,44.58,2.609,45.514,0Z" fill="#c36f4b"/>
  <path d="M275.126,548.599c-.522-1.292-4.024-26.314-4.839-27.445-1.608-2.231-13.357-8.96-16.508-8.908-2.129.035-25.088,7.053-26.102,7.965l-7.566,37.727c.445,5.784,25.713,5.094,31.491,8.248,2.689-.222,26.992-8.997,23.525-17.587Z" fill="#c36f4b"/>
  <path d="M343.09,469.713c.426-1.326-4.024-26.314-4.839-27.445-1.608-2.231-13.357-8.96-16.508-8.908-2.129.035-25.818,4.949-26.833,5.861l-8.965,32.946c.445,5.784,26.357,13.515,32.135,16.669,2.689-.222,24.163-16.485,25.011-19.123Z" fill="#c36f4b"/>
  <path d="M210.601,418.393c.924-2.195-.142-9.101-2.082-11.272-.894-1-22.644-11.887-23.977-12.039-6.659-.759-21.904,10.212-29.212,12.789,4.922,5.145,17.739,39.242,22.233,38.665,4.492-5.956,31.368-24.177,33.038-28.144Z" fill="#c36f4b"/>
  <path d="M240.331,340.686c-2.387-.7-35.905,28.567-38.242,31.812-3.121,4.332,4.248,25.03,7.145,27.448,1.526,1.273,36.181,11.629,38.129,11.238,4.122-.828,15.375-6.824,17.945-10.132.832-1.071,4.678-19.593,4.436-20.869-2.456-12.955-23.566-26.907-29.413-39.497Z" fill="#c36f4b"/>
  <polygon points="414.568 394.441 428.516 399.58 454.944 390.771 425.225 359.867 414.568 394.441" fill="#c36f4b"/>
  <path d="M335.969,268.442c3.278.2,9.752-3.262,11.754-5.865,4.686-6.093,5.913-28.705,5.658-30.221-1.274-7.573-14.21-28.355-23.343-28.116-12.773.335-36.918,24.036-35.533,36.739,1.347,12.36,29.054,26.704,41.465,27.462Z" fill="#c36f4b"/>
  <path d="M75.402,559.438l49.486-1.5c2.588-9.633,11.259-62.352,3.444-67.685l-42.615-8.011-23.359,45.408,13.044,31.787Z" fill="#c36f4b"/>
  <path d="M341.892,369.482l-13.905,46.377c-14.253,3.708-33.512,8.195-46.291-4.533l5.873-43.312c4.182-4.976,18.359-31.782,23.491-30.098l30.832,31.566Z" fill="#c36f4b"/>
  <path d="M137.003,549.667c3.512-11.252,3.789-39.009,12.749-45.636,1.595-1.18,28.196-12.571,29.811-12.493l37.151,22.057c-1.889,7.798-2.036,21.086-6.639,27.363-1.143,1.559-30.466,20.732-32.35,21.166-4.682,1.081-39.845-10.063-40.722-12.457Z" fill="#c36f4b"/>
  <path d="M349.309,135.611c-12.449,6.684-39.536-6.596-44.858-13.582-4.746-6.23-1.123-29.756,4.831-36.907,4.799-5.764,20.813-11.958,28.146-10.384,9.426,2.024,24.615,17.826,27.512,27.022,3.022,9.593-6.769,29.093-15.631,33.851Z" fill="#c36f4b"/>
  <path d="M271.419,422.337c-1.134-1.32-35.786-7.033-37.521-6.904-3.426.255-18.266,8.368-20.27,11.758-1.353,2.29-10.481,11.296-7.544,20.105l46.983,33.769c16.4-4.223,20.764-35.55,27.896-39.641,1.52-3.008-7.288-16.461-9.543-19.087Z" fill="#c36f4b"/>
  <path d="M383.147,198.193c5.234-3.028,12.853-14.561,12.664-20.605-.225-7.226-10.805-19.385-16.646-23.644-6.942-5.062-28.714-8.969-34.26-2.725-5.096,5.737-7.804,40.359,1.431,48.049,7.075,5.891,28.841,3.536,36.811-1.074Z" fill="#c36f4b"/>
  <path d="M131.983,441.412c1.201-.646,26.033-.8,27.265-.217,2.432,1.151,10.993,11.26,11.502,14.302.344,2.055-2.332,25.39-3.029,26.529l-27.953,14.805c-5.644.599-17.684-22.96-21.744-27.959-.264-2.626,11.571-26.176,13.959-27.46Z" fill="#c36f4b"/>
  <polygon points="249.391 504.303 251.445 488.897 280.203 483.761 307.935 494.032 284.312 515.601 249.391 504.303" fill="#c36f4b"/>
  <polygon points="354.154 516.628 364.148 557.547 401.123 555.493 391.129 527.926 354.154 516.628" fill="#c36f4b"/>
  <polygon points="439.402 470.409 433.24 489.924 455.836 505.33 464.053 480.68 439.402 470.409" fill="#c36f4b"/>
</svg>