<?xml version="1.0" encoding="UTF-8"?>
<svg id="a" data-name="Layer 1" xmlns="http://www.w3.org/2000/svg" width="600" height="600" viewBox="0 0 600 600">
  <path d="M265.648,332.646c3.009.319,27.145,48.764,28.271,53.496,1.503,6.318-16.374,26.183-20.753,27.56-2.306.725-46.079-3.684-48.089-5.027-4.253-2.841-14.13-14.798-15.488-19.709-.44-1.589,3.817-24.203,4.68-25.526,8.764-13.432,38.97-19.343,51.379-30.793Z" fill="#c36f4b"/>
  <polygon points="271.749 543.963 242.849 509.365 243.874 466.064 282.75 454.183 311.155 500.781 271.749 543.963" fill="#c36f4b"/>
  <path d="M329.348,302.415c-2.885-.459-9.39-6.044-10.396-9.471-.464-1.579,2.284-31.294,2.989-32.781,3.522-7.429,24.83-16.207,32.249-22.152,2.172,8.461,29.395,43.904,25.884,48.212-9.115.822-45.511,17.021-50.726,16.191Z" fill="#c36f4b"/>
  <path d="M396.711,173.539c-2.357-1.251-43.893,22.256-47.05,25.16-4.215,3.877-.945,27.214,1.577,30.381,1.328,1.668,35.499,20.034,37.631,20.043,4.51.021,17.627-3.848,21.042-6.768,1.105-.945,9.147-19.574,9.169-20.967.218-14.141-18.945-33.359-22.369-47.849Z" fill="#c36f4b"/>
  <path d="M335.364,357.297l-43.56-.071c-3.962-7.946-20.5-43.053-14.624-49.088l35.763-14.527,28.411,35.485-5.99,28.201Z" fill="#c36f4b"/>
  <path d="M340.343,345.573l14.116,50.847c17.247,4.545,30.897,13.286,47.978,2.048l-.096-45.848c-4.669-5.042-19.282-22.841-25.796-21.598l-36.202,14.551Z" fill="#c36f4b"/>
  <path d="M361.066,448.922c-2.988-10.23-2.777-35.327-10.766-41.467-1.423-1.093-25.28-11.833-26.741-11.789l-33.951,19.322c1.578,7.081,1.49,19.096,5.547,24.847,1.007,1.428,27.197,19.248,28.892,19.672,4.214,1.055,36.187-8.435,37.019-10.585Z" fill="#c36f4b"/>
  <path d="M389.422,340.364c5.482,4.758,47.37-15.156,56.242-17.378.6-8.135,2.763-33.227-3.163-38.637-1.897-1.732-26.268-12.552-28.755-12.222l-29.983,26.721,5.659,41.516Z" fill="#c36f4b"/>
  <path d="M307.642,227.734c-1.217-.89-28.389-4.843-29.828-4.392-2.839.89-13.755,10.657-14.777,13.911-.69,2.198-1.316,28.163-.725,29.516l28.358,20.474c6.09,1.516,22.866-22.451,28.074-27.307.689-2.836-8.683-30.431-11.103-32.201Z" fill="#c36f4b"/>
  <path d="M265.885,303.649c1.543-2.062,2.229-9.592.76-12.378-.677-1.284-20.666-18.397-22.026-18.904-6.792-2.537-25.664,4.997-34.009,5.793,3.823,6.687,8.368,45.833,13.236,46.402,6.272-5.079,39.249-17.184,42.039-20.913Z" fill="#c36f4b"/>
  <g>
    <path d="M308.101,184.334c-2.223-1.929-3.876-4.167-6.982-5.37-.363-3.01-3.474-8.852-6.192-3.781-7.224-3.403,1.436,12.735,6.378,9.196-1.079,3.134.686,5.882,3.719,7.597-3.055,3.098,7.439,10.349,3.395,2.971,8.215-.223.807-5.973-.319-10.613Z" fill="#c36f4b"/>
    <path d="M272.693,142.532c-.235,1.496-.445,1.246.867,3.16,6.582,2.833,1.96-10.857-.867-3.16Z" fill="#c36f4b"/>
    <path d="M196.578,69.495c-1.818-4.499-5.854-.754-8.247-2.002,4.795-2.936-3.27-6.237-5.882-7.589.585-2.979-5.783-1.514-4.982-2.94-.74-1.17-2.72-3.699-4.134-3.736-.866.64-.851-2.227-2.155-2.054-3.339,1.552-2.82-1.57-4.943-2.697-1.944,2.908-4.036-1.292-4.324,2.947.345-2.851-5.397-.767-3.188.965,4.245,1.334,6.045,4.4,9.136,4.306,3.113.823,4.704,7.674,10.293,7.234,2.619.225,1.723,2.724,3.658,3.656,1.115-.241,4.136.689,3.964-1.355.131,1.128,1.009,1.585,2.056,1.358-3.56,1.9,1.067,5.889,1.893,2.366,1.345-.135,1.243,2.017,2.589,2.234,3.95,4.573,8.541-2.38,4.267-2.691Z" fill="#c36f4b"/>
    <path d="M273.284,138.925c1.133-2.215-2.621-4.459-4.187-5.387-3.739,1.368,1.362,6.418,4.187,5.387Z" fill="#c36f4b"/>
    <path d="M263.443,127.323c1.116-3.162-3.833-4.384-5.54-5.861-3.497.285-7.126,5.444-2.436,6.088.073,2.461,2.605.134,4.075,1.229,1.107,2.898,7.859,2.12,3.901-1.457Z" fill="#c36f4b"/>
    <path d="M251.771,114.935c-.627-1.385-2.599-.555-1.932.847-2.2,9.865,8.788-2.138,1.932-.847Z" fill="#c36f4b"/>
    <path d="M218.056,85.907c-.562-.599-.266-3.269-2.466-2.587-3.776.327,1.634,12.526,2.947,7.947-.059-1.444,2.575-4.772-.481-5.359Z" fill="#c36f4b"/>
    <path d="M206.847,76.865c-.784-.999-1.604.534-2.297-.418-.899-.787-1.477.787-2.122.583,1.918-5.25-6.508-4.065-5.36.463,1.919,1.364,3.646,3.29,6.094,3.133,2.64-.27,7.432.546,3.685-3.762Z" fill="#c36f4b"/>
    <path d="M270.094,146.316c1.421-.952,1.943-2.265,1.043-3.81-3.903-5.946-5.052,4.668-1.043,3.81Z" fill="#c36f4b"/>
    <path d="M210.911,88.825c2.232.521,3.972-1.048,2.296-3.028-2.291-2.282-5.139,1.631-2.296,3.028Z" fill="#c36f4b"/>
    <path d="M247.729,112.473c3.449.759,2.261-4.536-.61-3.158-1.347,3.892.191,1.528-2.142,3.974.782,7.53,7.62,3.989,2.752-.816Z" fill="#c36f4b"/>
    <path d="M287.209,156.953c-.944-2.628-5.167-3.304-7.366-3.154,1.618-2.891-.72-2.546-2.707-2.121-.115-4.727-6.928.049-1.6,1.25.719-.158,1.838.902.769.764-2.338.497.05,4.228,1.82,2.636.316-.386-.046,1.043.016,1.059-4.336.91,4.848,4.808,4.743,2.728-.118,7.321,4.081-1.57,4.054,1.446-2.607,4.472,5.76,2.635,2.643-.51.653-2.83-3.434-1.136-2.373-4.098ZM279.254,154.263c-.215.195-.03.639-.219.737.008-.405-.325-.634.219-.737Z" fill="#c36f4b"/>
    <path d="M253.41,118.597c-.892,2.592,3.18,4.227,3.46,1.155.295-1.321-3.326-3.252-3.46-1.155Z" fill="#c36f4b"/>
    <path d="M286.301,168.294c1.745-.782,2.16-1.357,1.166-2.297-3.264-3.423-4.653,2.696-1.166,2.297Z" fill="#c36f4b"/>
    <path d="M244.141,105.138c-.726.455-2.333.587-1.35-.47-.74-4.25-7.605-7.544-10.993-9.839-5.504-.704-1.298-1.321-4.889-2.966-2.888.617,1.479-4.394-5.432-1.18-2.356-4.126-6.234,5.129,2.059,6.369,3.535,3.928,8.038,7.858,13.673,10.926,2.918,3.55,4.902.722,8.373.316,2.362-.511-.257-2.965-1.441-3.156Z" fill="#c36f4b"/>
  </g>
</svg>