<?xml version="1.0" encoding="UTF-8"?>
<svg id="a" data-name="Layer 1" xmlns="http://www.w3.org/2000/svg" width="600" height="600" viewBox="0 0 600 600">
  <path d="M367.617,472.367l8.612-43.119,45.688-10.573c-.495,15.89,18.68,55.23-5.084,59.991-2.603.521-47.752-4.296-49.216-6.299Z" fill="#c36f4b"/>
  <g>
    <path d="M15.607,320.604c.749-2.434,44.672-14.556,48.764-14.722,5.462-.222,18.99,17.755,19.42,21.596.227,2.023-10.483,37.477-11.917,38.921-3.034,3.055-14.508,9.286-18.785,9.615-1.384.107-19.381-7.061-20.335-7.988-9.683-9.41-9.691-35.321-17.148-47.422Z" fill="#c36f4b"/>
    <path d="M221.873,344.646l-38.385,12.361c-5.756-5.868-30.334-32.071-26.881-39.062l27.354-22.995,35.144,23.15,2.768,26.546Z" fill="#c36f4b"/>
    <path d="M112.877,316.724c-1.405-.309-21.39-17.275-21.975-18.59-1.155-2.595-1.051-16.579.635-19.365,1.139-1.882,19.34-18.721,20.682-19.151l32.565,7.385c4.93,3.405-1.645,30.549-1.835,37.345-1.596,2.284-27.277,12.991-30.072,12.376Z" fill="#c36f4b"/>
    <path d="M169.208,427.652c-1.653-1.938,11.679-45.509,13.734-49.051,2.743-4.729,25.171-6.502,28.643-4.805,1.829.894,26.005,28.951,26.455,30.936.951,4.199.054,17.225-1.962,21.011-.653,1.225-16.356,12.569-17.649,12.877-13.136,3.124-35.007-10.769-49.22-10.967Z" fill="#c36f4b"/>
    <path d="M158.909,442.356l-11.427,43.898c-9.044,1.923-48.749,9.445-53.301,1.948l-5.323-39.843,43.182-19.394,26.87,13.39Z" fill="#c36f4b"/>
    <polygon points="87.333 393.741 84.934 431.615 59.217 457.465 28.592 442.194 38.246 397.277 87.333 393.741" fill="#c36f4b"/>
  </g>
  <path d="M504.241,467.379l-38.385,12.361c-5.756-5.868-30.334-32.071-26.881-39.062l27.354-22.995,35.144,23.15,2.768,26.546Z" fill="#c36f4b"/>
  <path d="M539.163,555.8c-1.405-.309-21.39-17.275-21.975-18.59-1.155-2.595-1.051-16.579.635-19.365,1.139-1.882,19.34-18.721,20.682-19.151l32.565,7.385c4.93,3.405-1.645,30.549-1.835,37.345-1.596,2.284-27.277,12.991-30.072,12.376Z" fill="#c36f4b"/>
  <path d="M425.536,378.365c-.116,1.434-14.214,23.536-15.437,24.294-2.414,1.496-16.283,3.29-19.272,1.998-2.019-.873-21.171-16.621-21.78-17.893l2.899-33.266c2.704-5.347,30.49-2.515,37.249-3.248,2.479,1.272,16.571,25.262,16.341,28.115Z" fill="#c36f4b"/>
  <path d="M367.221,544.879c-1.653-1.938,11.679-45.509,13.734-49.051,2.743-4.729,25.171-6.502,28.643-4.805,1.829.894,26.005,28.951,26.455,30.936.951,4.199.054,17.225-1.962,21.011-.653,1.225-16.356,12.569-17.649,12.877-13.136,3.124-35.007-10.769-49.22-10.967Z" fill="#c36f4b"/>
  <polygon points="505.893 496.359 503.493 534.233 477.777 560.083 447.151 544.812 456.806 499.895 505.893 496.359" fill="#c36f4b"/>
  <g>
    <path d="M349.179,237.84c-2.517-.391-20.842-42.108-21.597-46.133-1.007-5.373,14.833-21.351,18.572-22.33,1.969-.516,38.597,4.972,40.232,6.183,3.46,2.562,11.28,13.018,12.222,17.203.305,1.354-4.194,20.196-4.973,21.273-7.916,10.938-33.555,14.68-44.456,23.804Z" fill="#c36f4b"/>
    <path d="M339.58,93.79l17.765,36.203c-4.978,6.542-27.364,34.64-34.78,32.23l-26.697-23.755,17.843-38.113,25.87-6.565Z" fill="#c36f4b"/>
    <path d="M319.368,196.153c-.104,1.435-14.012,23.657-15.229,24.425-2.402,1.517-16.255,3.429-19.254,2.163-2.026-.856-21.312-16.44-21.932-17.706l2.615-33.29c2.658-5.37,30.467-2.775,37.22-3.566,2.49,1.25,16.787,25.119,16.58,27.974Z" fill="#c36f4b"/>
    <path d="M428.504,158.559c-1.68,1.915-46.717-4.998-50.519-6.521-5.075-2.033-10.062-23.971-8.883-27.652.621-1.938,24.9-29.906,26.8-30.637,4.018-1.546,17.037-2.536,21.074-1.087,1.307.469,14.795,14.373,15.286,15.609,4.985,12.548-5.611,36.194-3.758,50.287Z" fill="#c36f4b"/>
    <path d="M342.999,24.303l45.086,4.98c3.207,8.673,16.372,46.878,9.61,52.464l-38.659,11.01-25.415-39.936,9.378-28.519Z" fill="#c36f4b"/>
    <polygon points="407.932 171.848 445.757 168.763 475.043 190.486 464.345 222.993 418.506 219.913 407.932 171.848" fill="#c36f4b"/>
  </g>
  <path d="M512.935,440.579l36.203-17.765c6.542,4.978,34.64,27.364,32.23,34.78l-23.755,26.697-38.113-17.843-6.565-25.87Z" fill="#c36f4b"/>
  <path d="M433.343,361.283l36.203-17.765c6.542,4.978,34.64,27.364,32.23,34.78l-23.755,26.697-38.113-17.843-6.565-25.87Z" fill="#c36f4b"/>
  <path d="M573.28,351.793c1.915,1.68-4.998,46.717-6.521,50.519-2.033,5.075-23.971,10.062-27.652,8.883-1.938-.621-29.906-24.9-30.637-26.8-1.546-4.018-2.536-17.037-1.087-21.074.469-1.307,14.373-14.795,15.609-15.286,12.548-4.985,36.194,5.611,50.287,3.758Z" fill="#c36f4b"/>
  <path d="M137.973,405.712l-37.403-15.074c-.666-8.193-2.775-44.057,4.353-47.217l35.735-.156,12.182,40.282-14.866,22.166Z" fill="#c36f4b"/>
</svg>