<?xml version="1.0" encoding="UTF-8"?>
<svg id="a" data-name="Layer 1" xmlns="http://www.w3.org/2000/svg" width="600" height="600" viewBox="0 0 600 600">
  <g>
    <path d="M79.805,331.058l43.119-8.612,10.573-45.688c-15.89.495-55.23-18.68-59.991,5.084-.521,2.603,4.296,47.752,6.299,49.216Z" fill="#c36f4b"/>
    <path d="M223.497,334.038l43.119-8.612,10.573-45.688c-15.89.495-55.23-18.68-59.991,5.084-.521,2.603,4.296,47.752,6.299,49.216Z" fill="#c36f4b"/>
    <path d="M181.87,332.328l28.222-28.424c-11.136-16.568-18.662-27.512-39.106-32.92l-25.534,19.822,3.797,29.597,32.621,11.925Z" fill="#c36f4b"/>
  </g>
  <g>
    <path d="M417.077,465.789l-43.119,8.612-10.573,45.688c15.89-.495,55.23,18.68,59.991-5.084.521-2.603-4.296-47.752-6.299-49.216Z" fill="#c36f4b"/>
    <path d="M273.385,462.809l-43.119,8.612-10.573,45.688c15.89-.495,55.23,18.68,59.991-5.084.521-2.603-4.296-47.752-6.299-49.216Z" fill="#c36f4b"/>
    <path d="M315.012,464.519l-28.222,28.424c11.136,16.568,18.662,27.512,39.106,32.92l25.534-19.822-3.797-29.597-32.621-11.925Z" fill="#c36f4b"/>
  </g>
  <g>
    <path d="M333.411,116.459l43.119,8.612,10.573,45.688c-15.89-.495-55.23,18.68-59.991-5.084-.521-2.603,4.296-47.752,6.299-49.216Z" fill="#c36f4b"/>
    <path d="M477.103,113.479l43.119,8.612,10.573,45.688c-15.89-.495-55.23,18.68-59.991-5.084-.521-2.603,4.296-47.752,6.299-49.216Z" fill="#c36f4b"/>
    <path d="M435.476,115.189l28.222,28.424c-11.136,16.568-18.662,27.512-39.106,32.92l-25.534-19.822,3.797-29.597,32.621-11.925Z" fill="#c36f4b"/>
  </g>
</svg>