<?xml version="1.0" encoding="UTF-8"?>
<svg id="a" data-name="Layer 1" xmlns="http://www.w3.org/2000/svg" width="600" height="600" viewBox="0 0 600 600">
  <polygon points="242.31 405.162 257.362 370.823 289.984 355.541 313.237 380.085 289.065 418.504 242.31 405.162" fill="#c36f4b"/>
  <path d="M339.237,243.29c1.288-.603,27.156.669,28.405,1.348,2.466,1.339,10.797,12.36,11.152,15.557.24,2.16-3.894,26.306-4.686,27.451l-29.964,13.804c-5.912.298-17.09-24.93-21.029-30.37-.123-2.75,13.56-26.591,16.121-27.79Z" fill="#c36f4b"/>
  <path d="M284.033,231.357c1.288-.603,27.156.669,28.405,1.348,2.466,1.339,10.797,12.36,11.152,15.557.24,2.16-3.894,26.306-4.686,27.451l-29.964,13.804c-5.912.298-17.09-24.93-21.029-30.37-.123-2.75,13.56-26.591,16.121-27.79Z" fill="#c36f4b"/>
  <path d="M191.239,57.54c1.379-.345,26.525,5.858,27.621,6.763,2.164,1.787,8.23,14.2,7.966,17.405-.178,2.166-8.86,25.073-9.857,26.045l-32.053,7.81c-5.86-.84-11.999-27.742-14.823-33.836.406-2.723,18.402-23.501,21.145-24.188Z" fill="#c36f4b"/>
  <path d="M346.488,147.455c-1.23-2.095-1.083-9.225.586-11.682.769-1.132,21.302-15.076,22.629-15.409,6.633-1.666,23.532,7.376,31.271,8.998-4.285,5.867-12.653,42.084-17.275,42.107-5.346-5.419-34.987-20.226-37.211-24.013Z" fill="#c36f4b"/>
  <path d="M416.399,325.814c.058-2.218-32.837-24.436-36.169-25.71-4.448-1.702-20.614,9.381-22.037,12.432-.749,1.607-1.763,33.856-.98,35.447,1.656,3.366,9.397,11.699,12.837,13.16,1.113.473,17.964-.442,19.009-.942,10.61-5.077,17.819-26.468,27.34-34.387Z" fill="#c36f4b"/>
  <path d="M404.014,120.418l-22.981-28.009c3.008-6.745,16.809-35.922,23.79-35.339l28.233,15.285-7.767,37.002-21.275,11.061Z" fill="#c36f4b"/>
  <path d="M138.773,327.183c-2.095,5.662,14.6,29.012,18.931,35.266,6.507-1.919,26.671-7.594,29.144-13.793.791-1.984,2.065-24.125,1.08-25.964l-29.59-15.5-19.565,19.991Z" fill="#c36f4b"/>
  <path d="M114.156,371.214c3.892-3.394-.916-22.149-2.13-27.924-6.128-.616-25.012-2.72-29.422.942-1.411,1.172-10.892,16.554-10.774,18.164l18.647,20.058,23.678-11.241Z" fill="#c36f4b"/>
  <polygon points="436.114 212.965 448.352 243.679 476.643 258.124 497.87 237.19 477.719 202.608 436.114 212.965" fill="#c36f4b"/>
  <path d="M417.033,528.343c.212-1.236-6.913-22.934-7.782-23.838-1.715-1.784-13.032-6.293-15.834-5.848-1.892.301-21.458,9.456-22.246,10.398l-4.737,28.702c1.128,5.097,25.19,8.707,30.736,10.785,2.367-.538,19.441-17.742,19.863-20.2Z" fill="#c36f4b"/>
  <path d="M204.867,523.321c.423-1.18-2.834-23.785-3.533-24.826-1.38-2.054-11.744-8.457-14.58-8.504-1.916-.032-22.772,5.594-23.712,6.384l-9.64,27.447c.227,5.215,23.3,12.941,28.401,15.95,2.424-.119,22.222-14.104,23.063-16.451Z" fill="#c36f4b"/>
  <path d="M94.253,223.222c.383-1.194-3.621-23.678-4.354-24.695-1.447-2.007-12.018-8.063-14.854-8.016-1.916.032-22.574,6.346-23.487,7.167l-8.725,27.752c.4,5.204,23.716,12.161,28.915,14.999,2.419-.2,21.742-14.833,22.505-17.207Z" fill="#c36f4b"/>
  <path d="M555.447,200.793c-.066-1.252-11.803-20.843-12.85-21.533-2.066-1.362-14.1-3.263-16.734-2.21-1.779.711-18.842,13.958-19.404,15.05l1.713,29.04c2.224,4.722,26.49,2.934,32.358,3.738,2.19-1.047,15.048-21.594,14.916-24.084Z" fill="#c36f4b"/>
  <path d="M170.604,237.429c.383-1.194-3.621-23.678-4.354-24.695-1.447-2.007-12.018-8.063-14.854-8.016-1.916.032-22.574,6.346-23.487,7.167l-8.725,27.752c.4,5.204,23.716,12.161,28.915,14.999,2.419-.2,21.742-14.833,22.505-17.207Z" fill="#c36f4b"/>
  <path d="M363.753,385.552c.212-1.236-6.913-22.934-7.782-23.838-1.715-1.784-13.032-6.293-15.834-5.848-1.892.301-21.458,9.456-22.246,10.398l-4.737,28.702c1.128,5.097,25.19,8.707,30.736,10.785,2.367-.538,19.441-17.742,19.863-20.2Z" fill="#c36f4b"/>
  <path d="M257.99,354.671c.831-1.975-.128-8.189-1.873-10.143-.804-.9-20.375-10.696-21.575-10.832-5.991-.683-19.709,9.189-26.285,11.508,4.429,4.629,15.962,35.31,20.005,34.791,4.041-5.359,28.225-21.754,29.727-25.324Z" fill="#c36f4b"/>
  <path d="M234.273,199.395c-2.148-.63-32.307,25.705-34.411,28.625-2.808,3.898,3.822,22.523,6.429,24.698,1.373,1.146,32.556,10.464,34.309,10.112,3.709-.745,13.834-6.14,16.147-9.117.749-.963,4.209-17.63,3.991-18.778-2.21-11.657-21.205-24.211-26.466-35.539Z" fill="#c36f4b"/>
  <polygon points="213.808 334.08 248.549 321.363 265.601 290.175 242.857 265.77 203.539 287.216 213.808 334.08" fill="#c36f4b"/>
  <path d="M293.891,223.34c2.826.336,10.405-3.172,12.258-6.117.854-1.357,6.167-29.936,5.901-31.517-1.329-7.898-18.969-21.781-24.344-29.322-4.282,7.353-39.205,33.345-37.058,38.315,8.325,3.19,38.136,28.034,43.244,28.641Z" fill="#c36f4b"/>
  <path d="M513.57,365.557c-2.062-.771-33.524,22.92-35.796,25.635-3.032,3.624,2.147,22.368,4.551,24.688,1.266,1.222,31.195,12.582,32.94,12.361,3.692-.467,14.009-5.04,16.49-7.795.803-.892,5.384-16.997,5.252-18.139-1.339-11.593-19.081-25.261-23.437-36.75Z" fill="#c36f4b"/>
  <path d="M422.613,399.189l43.137-8.819c2.329-8.668,11.661-46.766,4.628-51.564l-38.345-7.208-21.018,40.858,11.598,26.733Z" fill="#c36f4b"/>
  <path d="M437.116,249.028l-14.099,46.922c-12.825,3.337-23.369,10.802-34.867-.651l3.575-42.986c3.763-4.478,15.696-20.384,20.313-18.869l25.078,15.585Z" fill="#c36f4b"/>
  <path d="M327.509,469.971c3.16-10.125,3.409-35.1,11.471-41.063,1.436-1.062,25.371-11.311,26.824-11.242l33.429,19.847c-1.7,7.017-1.832,18.974-5.974,24.622-1.028,1.402-27.414,18.654-29.108,19.046-4.213.973-35.853-9.055-36.641-11.209Z" fill="#c36f4b"/>
  <path d="M272.12,342.074c3.16-10.125,3.409-35.1,11.471-41.063,1.436-1.062,25.371-11.311,26.824-11.242l33.429,19.847c-1.7,7.017-1.832,18.974-5.974,24.622-1.028,1.402-27.414,18.654-29.108,19.046-4.213.973-35.853-9.055-36.641-11.209Z" fill="#c36f4b"/>
  <path d="M382.931,243.995c-5.713,4.493-46.643-17.457-55.41-20.11-.205-8.166-1.152-33.367,5.038-38.491,1.981-1.64,26.882-11.279,29.353-10.829l28.692,28.181-7.675,41.249Z" fill="#c36f4b"/>
  <path d="M244.792,427.428c-1.02-1.188-27.576-11.612-29.138-11.496-3.082.229-16.436,7.529-18.239,10.58-1.218,2.061-7.99,28.181-7.712,29.689l23.849,27.419c5.803,2.974,28.441-17.307,34.859-20.989,1.368-2.706-1.59-32.84-3.619-35.203Z" fill="#c36f4b"/>
  <path d="M259.855,161.1c2.081-1.683,4.692-9.091,3.924-12.272-.354-1.466-16.121-23.8-17.36-24.659-6.193-4.288-27.123-1.515-35.73-2.842,2.144,7.71-3.265,48.295,1.493,50.11,7.612-3.515,43.913-7.294,47.674-10.337Z" fill="#c36f4b"/>
</svg>