<?xml version="1.0" encoding="UTF-8"?>
<svg id="a" data-name="Layer 1" xmlns="http://www.w3.org/2000/svg" width="600" height="600" viewBox="0 0 600 600">
  <polygon points="375.004 420.903 334.913 439.237 337.822 475.006 382.11 489.887 399.492 461.701 375.004 420.903" fill="#c36f4b"/>
  <path d="M315.278,142.065c-.099,1.495,12.197,27.378,12.197,27.378l28.81,11.766,28.829-13.923-7.178-41.478c-5.637-7.107-34.69-8.425-41.54-10.211-2.748.932-20.921,23.495-21.118,26.469Z" fill="#c36f4b"/>
  <path d="M212.112,445.565c-1.356.518-27.601-2.698-28.823-3.482-2.412-1.547-10.076-13.387-10.2-16.669-.084-2.217,5.918-26.496,6.81-27.603l31.534-11.831c6.042.135,15.55,26.653,19.157,32.485-.079,2.809-15.782,26.068-18.478,27.099Z" fill="#c36f4b"/>
  <path d="M479.964,335.252c2.36-.382,19.303-39.643,19.987-43.426.912-5.049-14.05-19.946-17.565-20.843-1.851-.472-31.128.316-32.655,1.462-3.232,2.425-15.57,16.871-16.429,20.804-.278,1.273,4.059,18.928,4.797,19.934,7.495,10.217,31.58,13.573,41.865,22.068Z" fill="#c36f4b"/>
  <path d="M299.794,125.958l-49.236-18.551c-7.746,5.522-31.444,19.41-28.923,28.075l24.907,39.431,44.728-19.268,8.524-29.688Z" fill="#c36f4b"/>
  <path d="M111.613,304.676c-.515,1.407,4.019,29.701,4.019,29.701l24.346,19.383,31.579-5.267,4.758-41.825c-3.415-8.404-30.928-17.828-37.001-21.465-2.899.123-26.676,16.675-27.701,19.474Z" fill="#c36f4b"/>
  <path d="M310.956,273.042c2.211.52,32.149,18.309,32.149,18.309l-10.672,43.754s-24.052,1.408-28.128,6.601l-23.581-20.216.431-42.476s29.104-6.136,29.802-5.971Z" fill="#c36f4b"/>
  <path d="M467.567,423.439c.46,2.781-2.668,10.439-5.498,12.405-1.304.906-29.341,7.456-30.917,7.264-7.875-.958-22.409-17.784-30.113-22.761,7.082-4.569,21.602-47.773,26.617-45.874,3.533,8.093,39.08,43.939,39.912,48.966Z" fill="#c36f4b"/>
  <path d="M172.684,248.075c-2.911.221-34.25-41.558-36.143-45.853-2.526-5.735,10.984-27.7,14.901-29.769,2.063-1.09,44.375-4.523,46.517-3.598,4.531,1.956,15.986,11.586,18.13,16.011.694,1.432.589,23.636,0,25.041-5.981,14.274-33.62,25.141-43.405,38.168Z" fill="#c36f4b"/>
  <path d="M294.955,413.631l20.305,47.863c-6.871,8.069-37.681,42.655-47.056,39.028l-32.686-32.471,25.669-47.802,33.768-6.619Z" fill="#c36f4b"/>
  <polygon points="425.829 157.413 459.279 185.22 465.842 226.496 431.012 244.538 395.943 205.255 425.829 157.413" fill="#c36f4b"/>
</svg>