<?xml version="1.0" encoding="UTF-8"?>
<svg id="a" data-name="Layer 1" xmlns="http://www.w3.org/2000/svg" width="600" height="600" viewBox="0 0 600 600">
  <path d="M344.47,426.382c1.618,2.157-15.349,47.312-17.754,50.919-3.211,4.815-27.026,5.205-30.582,3.183-1.873-1.065-25.563-32.309-25.906-34.436-.727-4.5,1.082-18.203,3.463-22.07.771-1.252,18.112-12.199,19.499-12.438,14.086-2.432,36.276,13.693,51.281,14.842Z" fill="#c36f4b"/>
  <path d="M59.939,326.253l20.052-43.635c9.783-.327,52.562-.803,55.917,7.855l-1.841,42.515-48.605,12.205-25.523-18.94Z" fill="#c36f4b"/>
  <polygon points="336.561 525.493 341.6 485.633 370.482 460.021 401.831 478.181 388.66 525.002 336.561 525.493" fill="#c36f4b"/>
  <path d="M401.566,421.715c1.14-1.011,28.109-7.56,29.599-7.242,2.941.627,14.85,9.422,16.186,12.6.902,2.147,3.988,28.215,3.522,29.632l-26.599,23.286c-5.985,2.102-25.133-20.428-30.834-24.822-.962-2.789,5.859-31.443,8.126-33.454Z" fill="#c36f4b"/>
  <path d="M148.575,269.823c-1.197-2.312-.633-9.932,1.293-12.467.887-1.168,23.653-14.918,25.093-15.199,7.192-1.404,24.76,9.234,32.949,11.41-4.919,6.034-15.937,44.31-20.885,44.072-5.412-6.103-36.286-23.636-38.449-27.816Z" fill="#c36f4b"/>
  <path d="M512.738,152.8l8.209-42.368c8.472-2.37,45.719-11.9,50.493-5.056l7.451,37.51-39.834,21.012-26.318-11.098Z" fill="#c36f4b"/>
  <path d="M449.404,165.361l40.772-16.04c6.644,5.968,35.094,32.692,31.83,40.509l-28.081,26.812-39.697-22.687-4.824-28.594Z" fill="#c36f4b"/>
  <path d="M402.356,114.624c1.04-1.186,27.887-11.414,29.458-11.281,3.102.262,16.474,7.749,18.259,10.839,1.205,2.087,7.759,28.459,7.464,29.975l-24.294,27.368c-5.874,2.936-28.464-17.716-34.889-21.489-1.35-2.739,1.934-33.053,4.002-35.412Z" fill="#c36f4b"/>
  <path d="M15.818,254.882c-1.239-2.393-.655-10.282,1.338-12.906.919-1.209,24.485-15.443,25.976-15.734,7.445-1.454,25.631,9.559,34.108,11.812-5.092,6.246-16.498,45.869-21.62,45.622-5.602-6.318-37.562-24.468-39.802-28.794Z" fill="#c36f4b"/>
</svg>