<?xml version="1.0" encoding="UTF-8"?>
<svg id="a" data-name="Layer 1" xmlns="http://www.w3.org/2000/svg" width="600" height="600" viewBox="0 0 600 600">
  <polygon points="412.433 178.312 368.939 171.128 351.374 202.423 379.798 239.503 409.959 225.831 412.433 178.312" fill="#c36f4b"/>
  <path d="M432.855,153.396c-1.213.88-13.256,26.881-13.256,26.881l9.369,29.676,29.136,13.269,27.307-32.035c1.861-8.878-15.697-32.062-18.703-38.471-2.473-1.517-31.441-1.068-33.854.681Z" fill="#c36f4b"/>
  <path d="M284.984,224.415c-.695-2.893-6.881-9.058-10.441-9.808-1.64-.346-33.823,4.05-35.278,4.884-7.266,4.165-12.27,27.245-17.72,35.25,8.764,1.536,46.913,26.377,51.011,22.47.113-9.322,13.683-47.566,12.428-52.796Z" fill="#c36f4b"/>
  <path d="M493.392,262.892c-2.242-.726-18.724-46.542-18.724-46.542l19.764-19.293s44.798,1.477,46.115,2.823c2.785,2.849,4.379,25.128,4.625,29.09.08,1.282-11.213,24.083-11.213,24.083,0,0-29.268,3.105-40.566,9.839Z" fill="#c36f4b"/>
  <polygon points="367.254 251.211 342.496 274.727 298.68 281.316 292.826 224.45 330.458 215.251 367.254 251.211" fill="#c36f4b"/>
  <path d="M120.168,193.834c1.014,2.032,6.472,36.426,6.472,36.426l-40.468,19.764s-16.459-17.596-23.057-17.411l.471-31.057,32.939-26.822s23.323,18.458,23.643,19.1Z" fill="#c36f4b"/>
  <path d="M204.842,226.294c-1.414-.327-21.388-17.654-21.963-18.986-1.136-2.63-.881-16.732.849-19.524,1.169-1.886,19.707-18.673,21.066-19.093l32.765,7.8c4.936,3.487-1.988,30.793-2.253,37.646-1.634,2.286-27.65,12.809-30.463,12.158Z" fill="#c36f4b"/>
  <path d="M174.272,210.357c-1.172,2.563-8.043,7.169-11.489,7.219-1.588.023-28.502-10.204-29.703-11.243-5.997-5.193-8.655-27.267-12.266-35.699,8.426.166,44.601-27.562,47.7-23.185-1.59,8.686,7.875,58.275,5.757,62.908Z" fill="#c36f4b"/>
  <path d="M318.675,449.53c1.802,1.571,42.825-10.499,46.171-12.391,4.466-2.526,6.357-23.556,4.799-26.831-.82-1.725-20.142-23.735-22-24.177-3.931-.935-22.926-1.188-26.5.666-1.157.6-11.961,15.221-12.263,16.432-3.065,12.295,9.751,32.961,9.793,46.301Z" fill="#c36f4b"/>
  <path d="M309.728,439.822l-17.21-49.721c-9.198-2.426-35.027-11.771-40.079-4.294l-14.4,44.361,43.41,22.078,28.279-12.423Z" fill="#c36f4b"/>
  <polygon points="473.724 333.913 430.23 326.729 412.665 358.024 428.016 387.335 471.25 381.432 473.724 333.913" fill="#c36f4b"/>
  <path d="M485.242,365.566c-1.213.88-13.256,26.881-13.256,26.881l9.369,29.676,29.136,13.269,27.307-32.035c1.861-8.878-15.697-32.062-18.703-38.471-2.473-1.517-31.441-1.068-33.854.681Z" fill="#c36f4b"/>
  <path d="M141.442,391.734c-2.242-.726-18.724-46.542-18.724-46.542l19.764-19.293s44.798,1.477,46.115,2.823c2.785,2.849,4.379,25.128,4.625,29.09.08,1.282-11.213,24.083-11.213,24.083,0,0-29.268,3.105-40.566,9.839Z" fill="#c36f4b"/>
  <path d="M125.186,367.586c1.014,2.032,6.472,36.426,6.472,36.426l-40.468,19.764s-16.459-17.596-23.057-17.411l.471-31.057,32.939-26.822s23.323,18.458,23.643,19.1Z" fill="#c36f4b"/>
  <path d="M217.386,411.753c-1.414-.327-21.388-17.654-21.963-18.986-1.136-2.63-.881-16.732.849-19.524,1.169-1.886,19.707-18.673,21.066-19.093l32.765,7.8c4.936,3.487-1.988,30.793-2.253,37.646-1.634,2.286-27.65,12.809-30.463,12.158Z" fill="#c36f4b"/>
  <path d="M406.643,398.226c-1.172,2.563-8.043,7.169-11.489,7.219-1.588.023-28.502-10.204-29.703-11.243-5.997-5.193-8.655-27.267-12.266-35.699,8.426.166,44.601-27.562,47.7-23.185-1.59,8.686,7.875,58.275,5.757,62.908Z" fill="#c36f4b"/>
</svg>